<svg width="28" height="20" viewBox="0 0 28 20" fill="none" xmlns="http://www.w3.org/2000/svg">
<path id="Vector" fill-rule="evenodd" clip-rule="evenodd" d="M13.9838 0C17.3932 0 20.6534 1.78828 23.6917 4.72644C24.7282 5.72881 25.6659 6.79895 26.4914 7.86953C26.9895 8.51555 27.3432 9.02374 27.5368 9.3265L27.9676 10L27.5368 10.6735C27.3432 10.9763 26.9895 11.4844 26.4914 12.1305C25.6659 13.2011 24.7282 14.2712 23.6917 15.2736C20.6534 18.2117 17.3932 20 13.9838 20C10.5744 20 7.31419 18.2117 4.27593 15.2736C3.23941 14.2712 2.30168 13.2011 1.47618 12.1305C0.978052 11.4844 0.624386 10.9763 0.430749 10.6735L0 10L0.430749 9.3265C0.624386 9.02374 0.978052 8.51555 1.47618 7.86953C2.30168 6.79895 3.23941 5.72881 4.27593 4.72644C7.31419 1.78828 10.5744 0 13.9838 0ZM24.5116 9.3961C23.7558 8.4159 22.8965 7.43525 21.9537 6.52356C19.3369 3.99297 16.6151 2.5 13.9838 2.5C11.3524 2.5 8.63066 3.99297 6.01384 6.52356C5.07109 7.43525 4.21178 8.4159 3.45598 9.3961C3.29274 9.60779 3.1419 9.80978 3.004 10C3.1419 10.1902 3.29274 10.3922 3.45598 10.6039C4.21178 11.5841 5.07109 12.5647 6.01384 13.4764C8.63066 16.007 11.3524 17.5 13.9838 17.5C16.6151 17.5 19.3369 16.007 21.9537 13.4764C22.8965 12.5647 23.7558 11.5841 24.5116 10.6039C24.6748 10.3922 24.8257 10.1902 24.9636 10C24.8257 9.80978 24.6748 9.60779 24.5116 9.3961ZM13.9838 15C11.2224 15 8.98379 12.7614 8.98379 10C8.98379 7.23858 11.2224 5 13.9838 5C16.7452 5 18.9838 7.23858 18.9838 10C18.9838 12.7614 16.7452 15 13.9838 15ZM13.9838 12.5C15.3645 12.5 16.4838 11.3807 16.4838 10C16.4838 8.61929 15.3645 7.5 13.9838 7.5C12.6031 7.5 11.4838 8.61929 11.4838 10C11.4838 11.3807 12.6031 12.5 13.9838 12.5Z" fill="#F1F1F1"/>
</svg>
