<svg width="31" height="33" viewBox="0 0 31 33" fill="none" xmlns="http://www.w3.org/2000/svg">
<g id="Vector">
<path d="M11.9166 0.868495C13.9223 -0.289499 16.3935 -0.289498 18.3992 0.868495L27.0745 5.87723C29.0802 7.03522 30.3158 9.17528 30.3158 11.4913V21.5087C30.3158 23.8247 29.0802 25.9648 27.0745 27.1228L18.3992 32.1315C16.3935 33.2895 13.9223 33.2895 11.9166 32.1315L3.24127 27.1228C1.23556 25.9648 0 23.8247 0 21.5087V11.4913C0 9.17528 1.23556 7.03522 3.24127 5.87723L11.9166 0.868495Z" fill="#125488"/>
<path d="M24.8817 11.5918C24.8817 10.6152 24.3001 9.78039 23.4681 9.56091L15.5596 7.47515C15.4271 7.44112 15.2922 7.42445 15.1579 7.42445C15.0236 7.42445 14.8887 7.44112 14.7477 7.47723L6.8477 9.56091C6.0151 9.78039 5.43411 10.6152 5.43411 11.5918C5.43411 12.5683 6.01571 13.4032 6.8471 13.6227L8.47279 14.0512V19.9265C8.47279 21.7698 10.3191 23.3993 15.1579 23.3993C19.9967 23.3993 21.843 21.7698 21.843 19.9265V14.0512L23.4681 13.6227C24.3001 13.4032 24.8817 12.5683 24.8817 11.5918ZM20.6275 19.9265C20.6275 20.694 18.8043 22.0102 15.1579 22.0102C11.5115 22.0102 9.68827 20.694 9.68827 19.9265V14.3721L14.7556 15.7084C14.8881 15.7425 15.0236 15.7591 15.1579 15.7591C15.2922 15.7591 15.4277 15.7425 15.5675 15.7064L20.6275 14.3721V19.9265ZM15.2946 14.3527C15.2491 14.3638 15.2035 14.37 15.1579 14.37C15.1123 14.37 15.0661 14.3638 15.0212 14.3527L7.12058 12.269C6.84466 12.1961 6.64958 11.9155 6.64958 11.5918C6.64958 11.2681 6.84466 10.9875 7.12058 10.9146L15.0212 8.83093C15.0661 8.81981 15.1117 8.81356 15.1579 8.81356C15.2041 8.81356 15.2497 8.81981 15.2946 8.83093L23.1952 10.9146C23.4705 10.9875 23.6662 11.2681 23.6662 11.5918C23.6662 11.9155 23.4705 12.1961 23.1952 12.269L15.2946 14.3527Z" fill="#F1F1F1"/>
<path d="M23.0585 15.0646V21.3156C23.0585 21.6997 23.3302 22.0102 23.6662 22.0102C24.0017 22.0102 24.274 21.6997 24.274 21.3156V15.0646C24.274 14.6805 24.0017 14.37 23.6662 14.37C23.3302 14.37 23.0585 14.6805 23.0585 15.0646Z" fill="#F1F1F1"/>
<path d="M23.6662 22.7047C22.9947 22.7047 22.4508 24.7162 22.4508 25.4829C22.4508 26.2497 22.9947 26.8721 23.6662 26.8721C24.3372 26.8721 24.8817 26.2497 24.8817 25.4829C24.8817 24.7162 24.3372 22.7047 23.6662 22.7047Z" fill="#F1F1F1"/>
</g>
</svg>
