<svg width="764" height="218" viewBox="0 0 764 218" fill="none" xmlns="http://www.w3.org/2000/svg">
    <g opacity="0.25">
        <path
            d="M78.722 5.73733C91.9718 -1.91244 108.296 -1.91244 121.546 5.73733L178.856 38.8253C192.106 46.4751 200.268 60.6125 200.268 75.912V142.088C200.268 157.388 192.106 171.525 178.856 179.175L121.546 212.263C108.296 219.912 91.9718 219.912 78.722 212.263L21.412 179.175C8.1622 171.525 0 157.388 0 142.088V75.912C0 60.6125 8.16221 46.4751 21.412 38.8253L78.722 5.73733Z"
            fill="#125488" />
        <path
            d="M164.37 76.5761C164.37 70.125 160.528 64.6098 155.032 63.1599L102.788 49.3813C101.913 49.1565 101.021 49.0464 100.134 49.0464C99.2467 49.0464 98.3555 49.1565 97.424 49.3951L45.2363 63.1599C39.7361 64.6098 35.898 70.125 35.898 76.5761C35.898 83.0272 39.7401 88.5424 45.2323 89.9923L55.9718 92.8232V131.636C55.9718 143.813 68.1686 154.577 100.134 154.577C132.099 154.577 144.296 143.813 144.296 131.636V92.8232L155.032 89.9923C160.528 88.5424 164.37 83.0272 164.37 76.5761ZM136.267 131.636C136.267 136.706 124.223 145.4 100.134 145.4C76.0455 145.4 64.0013 136.706 64.0013 131.636V94.943L97.4762 103.771C98.3514 103.996 99.2467 104.106 100.134 104.106C101.021 104.106 101.917 103.996 102.84 103.757L136.267 94.943V131.636ZM101.037 94.8146C100.736 94.888 100.435 94.9293 100.134 94.9293C99.8329 94.9293 99.5278 94.888 99.2307 94.8146L47.0389 81.0497C45.2162 80.5679 43.9275 78.7142 43.9275 76.5761C43.9275 74.438 45.2162 72.5843 47.0389 72.1025L99.2307 58.3376C99.5278 58.2642 99.8289 58.2229 100.134 58.2229C100.439 58.2229 100.74 58.2642 101.037 58.3376L153.229 72.1025C155.048 72.5843 156.34 74.438 156.34 76.5761C156.34 78.7142 155.048 80.5679 153.229 81.0497L101.037 94.8146Z"
            fill="#F1F1F1" />
        <path
            d="M152.326 99.5175V140.812C152.326 143.349 154.12 145.4 156.34 145.4C158.557 145.4 160.355 143.349 160.355 140.812V99.5175C160.355 96.9802 158.557 94.9293 156.34 94.9293C154.12 94.9293 152.326 96.9802 152.326 99.5175Z"
            fill="#F1F1F1" />
        <path
            d="M156.34 149.989C151.904 149.989 148.311 163.276 148.311 168.342C148.311 173.407 151.904 177.518 156.34 177.518C160.773 177.518 164.37 173.407 164.37 168.342C164.37 163.276 160.773 149.989 156.34 149.989Z"
            fill="#F1F1F1" />
        <path
            d="M376.531 173.475C369.432 173.475 362.79 172.96 356.607 171.929C350.538 170.899 345.271 169.41 340.805 167.464V147.025C345.843 149.086 351.282 150.746 357.122 152.005C362.962 153.265 368.687 153.895 374.298 153.895C382.313 153.895 388.21 153.151 391.989 151.662C395.768 150.173 397.657 146.795 397.657 141.528C397.657 138.208 396.855 135.574 395.252 133.627C393.649 131.681 390.844 129.963 386.836 128.475C382.943 126.872 377.39 125.097 370.176 123.15C358.611 119.944 350.481 115.936 345.786 111.127C341.092 106.318 338.744 99.6767 338.744 91.2033C338.744 81.0123 342.466 73.1687 349.908 67.6725C357.351 62.1762 368.172 59.4281 382.371 59.4281C389.012 59.4281 395.195 59.8861 400.92 60.8022C406.646 61.7182 411.283 62.806 414.833 64.0656V84.5047C405.443 80.9551 395.653 79.1802 385.462 79.1802C378.248 79.1802 372.58 79.9818 368.458 81.5849C364.336 83.0734 362.275 86.2796 362.275 91.2033C362.275 94.0659 363.019 96.356 364.508 98.0736C365.996 99.7912 368.515 101.337 372.065 102.711C375.729 104.085 380.825 105.631 387.352 107.348C396.397 109.753 403.382 112.616 408.306 115.936C413.23 119.257 416.608 123.036 418.44 127.272C420.386 131.509 421.36 136.261 421.36 141.528C421.36 151.147 417.695 158.876 410.367 164.716C403.039 170.555 391.76 173.475 376.531 173.475Z"
            fill="#F1F1F1" />
        <path
            d="M437.451 208.857V90.3445H457.547L458.749 97.9018C462.299 94.9247 466.192 92.6346 470.429 91.0315C474.665 89.4285 479.646 88.6269 485.371 88.6269C497.28 88.6269 506.44 91.8903 512.853 98.4171C519.379 104.829 522.643 115.364 522.643 130.02C522.643 144.677 519.15 155.612 512.166 162.826C505.295 169.926 495.906 173.475 483.997 173.475C474.837 173.475 467.051 171.414 460.638 167.292V208.857H437.451ZM478.158 156.471C485.028 156.471 490.238 154.353 493.788 150.116C497.337 145.879 499.112 139.238 499.112 130.192C499.112 121.49 497.509 115.249 494.303 111.471C491.097 107.578 485.944 105.631 478.845 105.631C471.745 105.631 465.677 108.093 460.638 113.016V150.288C463.043 152.12 465.562 153.609 468.196 154.754C470.944 155.899 474.264 156.471 478.158 156.471Z"
            fill="#F1F1F1" />
        <path
            d="M564.353 173.475C559.2 173.475 554.391 172.559 549.925 170.727C545.574 168.78 542.025 165.975 539.276 162.311C536.643 158.532 535.326 153.838 535.326 148.227C535.326 140.211 538.131 133.799 543.742 128.99C549.467 124.181 557.883 121.776 568.99 121.776H593.036V119.543C593.036 114.505 591.605 110.955 588.743 108.894C585.994 106.833 580.384 105.803 571.91 105.803C562.635 105.803 553.704 107.234 545.116 110.097V93.7796C548.895 92.2911 553.475 91.0888 558.857 90.1727C564.353 89.1422 570.307 88.6269 576.72 88.6269C588.972 88.6269 598.418 91.146 605.06 96.1842C611.815 101.108 615.193 109.066 615.193 120.059V171.758H595.098L593.895 164.372C590.689 167.235 586.739 169.467 582.044 171.071C577.349 172.674 571.452 173.475 564.353 173.475ZM570.708 158.189C575.861 158.189 580.326 157.33 584.105 155.612C587.884 153.895 590.861 151.719 593.036 149.086V136.204H569.506C560.46 136.204 555.937 139.925 555.937 147.368C555.937 154.582 560.861 158.189 570.708 158.189Z"
            fill="#F1F1F1" />
        <path
            d="M633.865 171.758V90.3445H655.335L656.365 98.7606C660.029 96.4705 664.552 94.4094 669.934 92.5773C675.43 90.6308 680.812 89.3139 686.079 88.6269V106.146C682.988 106.604 679.61 107.291 675.946 108.207C672.282 109.123 668.789 110.154 665.469 111.299C662.148 112.444 659.343 113.646 657.052 114.906V171.758H633.865Z"
            fill="#F1F1F1" />
        <path
            d="M736.149 173.475C721.607 173.475 710.443 169.868 702.657 162.654C694.985 155.441 691.149 144.906 691.149 131.051C691.149 116.738 695.271 106.089 703.516 99.1041C711.874 92.1193 722.981 88.6269 736.836 88.6269C742.562 88.6269 747.485 89.0277 751.608 89.8292C755.73 90.6308 759.737 91.9476 763.631 93.7796V110.44C760.768 109.066 757.447 107.978 753.669 107.177C749.89 106.375 745.825 105.974 741.474 105.974C732.771 105.974 726.13 107.807 721.55 111.471C716.97 115.02 714.68 121.547 714.68 131.051C714.68 139.753 716.741 146.108 720.863 150.116C725.1 154.124 731.913 156.128 741.302 156.128C745.31 156.128 749.203 155.727 752.982 154.925C756.875 154.124 760.482 152.922 763.802 151.318V168.494C756.131 171.815 746.913 173.475 736.149 173.475Z"
            fill="#F1F1F1" />
    </g>
</svg>
