<svg width="25" height="24" viewBox="0 0 25 24" fill="none" xmlns="http://www.w3.org/2000/svg">
<path id="Vector" d="M14.4143 10.6643L13.8807 13.331H10.5871L11.1205 10.6643H14.4143ZM4.83333 -0.00231934C2.44009 -0.00231934 0.5 1.93777 0.5 4.33101V19.6643C0.5 22.0575 2.44009 23.9977 4.83333 23.9977H20.1667C22.5599 23.9977 24.5 22.0575 24.5 19.6643V4.33101C24.5 1.93777 22.5599 -0.00231934 20.1667 -0.00231934H4.83333ZM11.0305 6.01731C11.572 6.12565 11.9232 6.65251 11.8148 7.19405L11.5207 8.66435H14.8144L15.1871 6.80169C15.2955 6.26013 15.8223 5.90896 16.3639 6.01731C16.9053 6.12565 17.2565 6.65251 17.1481 7.19405L16.854 8.66435H18.1667C18.7189 8.66435 19.1667 9.11207 19.1667 9.66435C19.1667 10.2166 18.7189 10.6643 18.1667 10.6643H16.4539L15.9204 13.331H17.5C18.0523 13.331 18.5 13.7787 18.5 14.331C18.5 14.8833 18.0523 15.331 17.5 15.331H15.5203L15.1475 17.1943C15.0391 17.7359 14.5123 18.087 13.9707 17.9787C13.4291 17.8703 13.078 17.3435 13.1863 16.8019L13.4805 15.331H10.1869L9.81409 17.1943C9.70575 17.7359 9.17889 18.087 8.63735 17.9787C8.09579 17.8703 7.74461 17.3435 7.85296 16.8019L8.14725 15.331H6.83333C6.28105 15.331 5.83333 14.8833 5.83333 14.331C5.83333 13.7787 6.28105 13.331 6.83333 13.331H8.5474L9.08092 10.6643H7.5C6.94772 10.6643 6.5 10.2166 6.5 9.66435C6.5 9.11207 6.94772 8.66435 7.5 8.66435H9.48105L9.85373 6.80169C9.96213 6.26013 10.4889 5.90896 11.0305 6.01731Z" fill="#F1F1F1"/>
</svg>
