<svg width="21" height="24" viewBox="0 0 21 24" fill="none" xmlns="http://www.w3.org/2000/svg">
    <path id="password"
        d="M18.5 10.0012H14.5H6.5V7.20118C6.5 5.10118 8 3.20118 10.1 3.00118C12.5 2.80118 14.5 4.70118 14.5 7.00118C14.5 7.60118 14.9 8.00118 15.5 8.00118H16.5C17.1 8.00118 17.5 7.60118 17.5 7.00118C17.5 3.20118 14.5 0.101183 10.7 0.00118322C6.8 -0.0988168 3.5 3.10118 3.5 7.00118V10.0012H2.5C1.4 10.0012 0.5 10.9012 0.5 12.0012V19.0012C0.5 21.8012 2.7 24.0012 5.5 24.0012H15.5C18.3 24.0012 20.5 21.8012 20.5 19.0012V12.0012C20.5 10.9012 19.6 10.0012 18.5 10.0012ZM11.5 17.7012V19.0012C11.5 19.5012 11 20.0012 10.5 20.0012C10 20.0012 9.5 19.5012 9.5 19.0012V17.7012C8.9 17.4012 8.5 16.7012 8.5 16.0012C8.5 14.9012 9.4 14.0012 10.5 14.0012C11.6 14.0012 12.5 14.9012 12.5 16.0012C12.5 16.7012 12.1 17.4012 11.5 17.7012Z"
        fill="#F1F1F1" />
</svg>
