<svg width="25" height="24" viewBox="0 0 25 24" fill="none" xmlns="http://www.w3.org/2000/svg">
    <g id="Vector">
        <path
            d="M12.5 14.3989C15.8085 14.3989 18.4905 11.1754 18.4905 7.1989C18.4905 3.22245 15.8085 -0.00109863 12.5 -0.00109863C9.19153 -0.00109863 6.50949 3.22245 6.50949 7.1989C6.50949 11.1754 9.19153 14.3989 12.5 14.3989Z"
            fill="#F1F1F1" />
        <path
            d="M24.2414 20.5189C23.1631 18.3589 21.1263 16.5589 18.4905 15.4789C17.7716 15.2389 16.933 15.2389 16.3339 15.5989C15.1358 16.3189 13.9377 16.6789 12.5 16.6789C11.0623 16.6789 9.86418 16.3189 8.66607 15.5989C8.06702 15.3589 7.22835 15.2389 6.50949 15.5989C3.87367 16.6789 1.83689 18.4789 0.758601 20.6389C-0.0800709 22.1989 1.23784 23.9989 3.03499 23.9989H21.965C23.7622 23.9989 25.0801 22.1989 24.2414 20.5189Z"
            fill="#F1F1F1" />
    </g>
</svg>
